<svg width="134" height="35" viewBox="0 0 134 35" fill="none" xmlns="http://www.w3.org/2000/svg">
<g clip-path="url(#clip0_17137_72541)">
<path d="M37.0049 22.0891V9.2179C37.0049 9.04323 37.1321 8.91846 37.3102 8.91846H41.9485C44.6761 8.91846 46.4087 10.4182 46.4087 12.7663V18.5157C46.4087 20.8664 44.6761 22.3636 41.9485 22.3636H37.3102C37.1321 22.3885 37.0049 22.2638 37.0049 22.0891ZM38.992 20.789H42.0249C43.554 20.789 44.5234 19.8133 44.5234 18.2637V13.0408C44.5234 11.5162 43.554 10.5155 42.0249 10.5155H38.992C38.9411 10.5155 38.8902 10.5654 38.8902 10.6153V20.6642C38.8902 20.7391 38.9157 20.789 38.992 20.789Z" fill="#444E61"/>
<path d="M55.711 19.741C55.8128 19.5663 55.9146 19.5164 56.0927 19.6162L56.8839 20.0903C57.0366 20.1901 57.0875 20.3149 57.0112 20.4896C56.3242 21.6899 55.024 22.5133 53.2659 22.5133C51.3805 22.5133 50.1058 21.6374 49.4698 20.1627C49.1644 19.4141 48.9863 18.4633 48.9863 17.4128C48.9863 16.5369 49.0372 15.8881 49.1899 15.2892C49.6479 13.5399 51.1261 12.4395 53.1667 12.4395C55.7415 12.4395 56.9119 13.8394 57.2707 16.1376C57.347 16.6616 57.3979 17.2131 57.3979 17.8619C57.3979 18.0616 57.2707 18.1614 57.0926 18.1614H50.8997C50.8488 18.1614 50.7979 18.2113 50.7979 18.2612C50.8233 18.7104 50.8488 19.0622 50.9251 19.2868C51.205 20.2874 52.098 20.9362 53.3982 20.9362C54.5457 20.9362 55.2836 20.4871 55.7161 19.736L55.711 19.741ZM51.0472 15.5662C50.9455 15.8656 50.8946 16.215 50.8691 16.6417C50.8691 16.6916 50.92 16.7415 50.9709 16.7415H55.4057C55.4566 16.7415 55.5075 16.6916 55.5075 16.6417C55.482 16.2674 55.4566 15.918 55.3802 15.6909C55.1258 14.7152 54.3345 14.0415 53.1641 14.0415C51.9912 14.0415 51.3042 14.6653 51.0498 15.5662H51.0472Z" fill="#444E61"/>
<path d="M66.6441 19.741C66.7459 19.5663 66.8477 19.5164 67.0258 19.6162L67.8171 20.0903C67.9697 20.1901 68.0206 20.3149 67.9443 20.4896C67.2573 21.6899 65.9571 22.5133 64.199 22.5133C62.3137 22.5133 61.0389 21.6374 60.4029 20.1627C60.0975 19.4141 59.9194 18.4633 59.9194 17.4128C59.9194 16.5369 59.9703 15.8881 60.123 15.2892C60.581 13.5399 62.0592 12.4395 64.0998 12.4395C66.6746 12.4395 67.845 13.8394 68.2038 16.1376C68.2801 16.6616 68.331 17.2131 68.331 17.8619C68.331 18.0616 68.2038 18.1614 68.0257 18.1614H61.8328C61.7819 18.1614 61.731 18.2113 61.731 18.2612C61.7564 18.7104 61.7819 19.0622 61.8582 19.2868C62.1381 20.2874 63.0312 20.9362 64.3313 20.9362C65.4534 20.9362 66.2167 20.4871 66.6492 19.736L66.6441 19.741ZM61.9549 15.5662C61.8531 15.8656 61.8022 16.215 61.7768 16.6417C61.7768 16.6916 61.8277 16.7415 61.8786 16.7415H66.3133C66.3642 16.7415 66.4151 16.6916 66.4151 16.6417C66.3897 16.2674 66.3642 15.918 66.2879 15.6909C66.0335 14.7152 65.2422 14.0415 64.0718 14.0415C62.9243 14.0415 62.2119 14.6653 61.9574 15.5662H61.9549Z" fill="#444E61"/>
<path d="M79.5387 17.5151C79.5387 18.3909 79.4624 19.1645 79.2334 19.8408C78.6991 21.4902 77.4498 22.5408 75.4881 22.5408C74.5951 22.5408 73.7809 22.1914 73.2211 21.5651C73.1702 21.5152 73.0939 21.5152 73.0939 21.615V25.7648C73.0939 25.9395 72.9667 26.0643 72.7886 26.0643H71.4884C71.3103 26.0643 71.1831 25.9395 71.1831 25.7648V12.8911C71.1831 12.7164 71.3103 12.5917 71.4884 12.5917H72.7886C72.9667 12.5917 73.0939 12.7164 73.0939 12.8911V13.3902C73.0939 13.4651 73.1448 13.515 73.2211 13.4401C73.7809 12.7913 74.5976 12.4395 75.4881 12.4395C77.3989 12.4395 78.6482 13.4401 79.1825 15.0396C79.4369 15.7633 79.5387 16.5893 79.5387 17.5151ZM77.6534 17.4901C77.6534 16.4645 77.4752 15.6909 77.1699 15.1145C76.7883 14.4158 76.1497 14.0639 75.2846 14.0639C74.5213 14.0639 73.959 14.4383 73.5773 15.0896C73.272 15.6385 73.1193 16.4645 73.1193 17.5151C73.1193 18.5656 73.2975 19.3891 73.6282 19.9655C74.0099 20.5894 74.5467 20.9412 75.2846 20.9412C76.0224 20.9412 76.6356 20.6168 77.0173 20.0154C77.4244 19.4166 77.6534 18.6155 77.6534 17.4901Z" fill="#444E61"/>
<path d="M92.1025 13.0932C92.1025 15.5437 90.3189 17.1682 87.6677 17.1682H84.9148C84.8639 17.1682 84.7875 17.2181 84.7875 17.293V22.0666C84.7875 22.2663 84.6603 22.391 84.4568 22.391H82.3679C82.1643 22.391 82.0371 22.2663 82.0371 22.0666V9.26779C82.0371 9.06816 82.1643 8.94339 82.3679 8.94339H87.7949C90.3698 8.91844 92.1025 10.5928 92.1025 13.0932ZM89.375 13.1431C89.375 12.0177 88.5837 11.2691 87.3879 11.2691H84.9148C84.8384 11.2691 84.7875 11.319 84.7875 11.3939V14.8924C84.7875 14.9673 84.8384 15.0172 84.9148 15.0172H87.3879C88.5608 14.9922 89.375 14.2411 89.375 13.1431Z" fill="#444E61"/>
<path d="M102.298 15.641V22.0641C102.298 22.2637 102.171 22.3885 101.967 22.3885H99.8781C99.6745 22.3885 99.5473 22.2637 99.5473 22.0641V21.6149C99.5473 21.5151 99.4964 21.4902 99.4201 21.565C98.8094 22.2138 97.9164 22.5407 96.7434 22.5407C94.8327 22.5407 93.4053 21.6399 93.4053 19.666C93.4053 17.6922 94.8327 16.5668 97.4839 16.5668H99.471C99.5219 16.5668 99.5982 16.5169 99.5982 16.442V16.0178C99.5982 15.1918 99.0639 14.6678 98.0436 14.6678C97.2523 14.6678 96.7434 14.9423 96.5653 15.3915C96.489 15.5911 96.3618 15.6659 96.1837 15.641L94.0185 15.3665C93.8149 15.3415 93.6877 15.2417 93.7131 15.092C93.9167 13.4925 95.6494 12.3171 98.0207 12.3171C100.494 12.367 102.303 13.7919 102.303 15.641H102.298ZM99.5448 18.9399V18.2661C99.5448 18.2162 99.4939 18.1414 99.4175 18.1414H98.0156C96.8427 18.1414 96.1048 18.5905 96.1048 19.3916C96.1048 20.0903 96.6646 20.517 97.5068 20.517C98.6288 20.517 99.5448 19.8931 99.5448 18.9424V18.9399Z" fill="#444E61"/>
<path d="M104.692 19.6661C104.463 18.9924 104.361 18.2163 104.361 17.3928C104.361 16.4421 104.489 15.7184 104.692 15.1695C105.328 13.4451 106.934 12.3696 109.025 12.3696C111.117 12.3696 112.847 13.5699 113.358 15.0696C113.46 15.2942 113.485 15.5188 113.511 15.6685C113.536 15.8682 113.409 15.968 113.205 16.0179L111.142 16.3173C110.938 16.3672 110.786 16.2674 110.76 16.1177L110.709 15.8432C110.531 15.2194 109.893 14.6928 108.977 14.6928C108.135 14.6928 107.549 15.142 107.32 15.8432C107.193 16.2175 107.117 16.744 107.117 17.4178C107.117 18.0915 107.193 18.643 107.32 18.9924C107.549 19.741 108.137 20.2176 109.002 20.2176C109.819 20.2176 110.48 19.7684 110.709 19.0423C110.735 18.9924 110.735 18.9425 110.735 18.9425C110.76 18.8676 110.913 18.643 111.117 18.668L113.18 18.9674C113.384 19.0173 113.485 19.1421 113.46 19.3417C113.434 19.4665 113.409 19.6412 113.358 19.7909C112.798 21.5152 111.066 22.5408 109.025 22.5408C106.936 22.5408 105.331 21.4154 104.692 19.6661Z" fill="#444E61"/>
<path d="M115.498 22.0641V9.26776C115.498 9.06813 115.625 8.94336 115.828 8.94336H117.917C118.121 8.94336 118.248 9.06813 118.248 9.26776V15.5911C118.248 15.6909 118.324 15.7158 118.375 15.641L120.976 12.6914C121.103 12.5667 121.205 12.4918 121.383 12.4918H123.754C124.034 12.4918 124.136 12.6665 123.957 12.8911L121.561 15.8406C121.51 15.8905 121.51 15.9404 121.535 15.9903L124.415 21.9643C124.517 22.1639 124.415 22.3386 124.161 22.3386H121.945C121.767 22.3386 121.64 22.2637 121.563 22.0891L119.652 17.6897C119.602 17.5899 119.551 17.6148 119.5 17.6647L118.276 19.1894C118.225 19.2393 118.225 19.2643 118.225 19.3142V22.0142C118.225 22.2138 118.098 22.3386 117.894 22.3386H115.805C115.627 22.3885 115.5 22.2637 115.5 22.0641H115.498Z" fill="#444E61"/>
<path d="M129.158 8.41945V9.01834C129.158 9.0932 129.107 9.14311 129.031 9.14311H127.833C127.807 9.14311 127.782 9.16806 127.782 9.19302V12.966C127.782 13.0409 127.731 13.0908 127.655 13.0908H126.917C126.84 13.0908 126.79 13.0409 126.79 12.966V9.19302C126.79 9.16806 126.764 9.14311 126.739 9.14311H125.566C125.489 9.14311 125.438 9.0932 125.438 9.01834V8.41945C125.438 8.34459 125.489 8.29468 125.566 8.29468H128.98C129.133 8.29468 129.158 8.34459 129.158 8.41945Z" fill="#444E61"/>
<path d="M129.947 12.9436V8.41945C129.947 8.34459 129.998 8.29468 130.074 8.29468H130.812C130.863 8.29468 130.914 8.31963 130.939 8.36954L131.934 9.96908C131.959 9.99403 131.985 9.99403 131.985 9.96908L133.005 8.36954C133.031 8.31963 133.081 8.29468 133.132 8.29468H133.87C133.946 8.29468 133.997 8.34459 133.997 8.41945V12.9436C133.997 13.0184 133.946 13.0683 133.87 13.0683H133.132C133.056 13.0683 133.005 13.0184 133.005 12.9436V9.99403C133.005 9.94413 132.98 9.94413 132.954 9.96908L132.267 11.0945C132.242 11.1444 132.191 11.1694 132.14 11.1694H131.784C131.733 11.1694 131.682 11.1444 131.657 11.0945L130.97 9.96908C130.944 9.94413 130.919 9.94413 130.919 9.99403V12.9436C130.919 13.0184 130.868 13.0683 130.791 13.0683H130.054C129.977 13.0683 129.952 13.0184 129.952 12.9436H129.947Z" fill="#444E61"/>
<path d="M15.121 34.0444L1.55713 27.1821C0.600463 26.698 0 25.7298 0 24.6742V9.28766C0 8.20965 0.628451 7.22397 1.61565 6.75234L15.1566 0.284304C15.9555 -0.0974896 16.8868 -0.0949942 17.6831 0.289295L31.1758 6.78728C32.1579 7.25891 32.7812 8.2371 32.7838 9.31012L32.8372 24.5494C32.8397 25.6 32.2495 26.5657 31.3004 27.0548L17.7798 34.0344C16.9478 34.4636 15.9555 34.4686 15.121 34.0444ZM2.75297 26.396L15.0905 32.6395C15.925 33.0612 16.9147 33.0587 17.7467 32.6295L30.041 26.2987C30.99 25.8096 31.5828 24.8464 31.5803 23.7958L31.5549 10.1635C31.5549 9.09302 30.9315 8.11483 29.9519 7.6407L17.6857 1.69669C16.8893 1.30991 15.953 1.30741 15.1541 1.68921L2.81404 7.57333C1.82429 8.04495 1.19584 9.03063 1.19584 10.1111V23.8882C1.19584 24.9437 1.7963 25.9119 2.75297 26.3935V26.396Z" fill="#444E61"/>
<path d="M14.195 11.863C14.2128 11.8705 14.2306 11.8805 14.2484 11.8904C14.2484 11.8904 14.2586 11.8979 14.2637 11.9029C14.2764 11.9104 14.2892 11.9204 14.2993 11.9279C14.3044 11.9329 14.3121 11.9378 14.3171 11.9428C14.3273 11.9503 14.335 11.9603 14.3451 11.9703C14.3502 11.9753 14.3553 11.9828 14.3604 11.9902C14.368 12.0002 14.3757 12.0102 14.3833 12.0177C14.3884 12.0252 14.3935 12.0327 14.396 12.0402C14.4011 12.0501 14.4087 12.0601 14.4138 12.0701C14.4189 12.0776 14.4215 12.0851 14.424 12.0926C14.4291 12.1025 14.4342 12.115 14.4367 12.125C14.4393 12.1325 14.4418 12.14 14.4444 12.15C14.4469 12.1624 14.4494 12.1749 14.452 12.1874C14.452 12.1949 14.4545 12.2024 14.4571 12.2098C14.4571 12.2223 14.4596 12.2373 14.4596 12.2523C14.4596 12.2573 14.4596 12.2647 14.4596 12.2697C14.4596 12.2697 14.4596 12.2697 14.4596 12.2722V13.2504C14.6759 13.198 14.9023 13.1556 15.1364 13.1207C15.1695 13.1157 15.2026 13.1107 15.2382 13.1057C15.256 13.1057 15.2738 13.1007 15.2891 13.0982C15.6784 13.0458 16.0905 13.0183 16.5154 13.0159V9.78433L12.0781 7.65576V10.9297L14.1848 11.8605L14.195 11.863Z" fill="#FFBF00"/>
<path d="M20.9296 7.68813L16.5024 5.72925L12.0854 7.65818L16.5228 9.78675L20.9296 7.68813Z" fill="#F3CF96"/>
<path d="M20.9297 7.68823L16.5229 9.78685V13.0184C16.5229 13.0184 16.5382 13.0184 16.5433 13.0184C16.5535 13.0184 16.5611 13.0184 16.5713 13.0184H16.5942C17.2226 13.0184 17.8333 13.0758 18.3981 13.1831V12.0427C18.3981 12.0427 18.3981 12.0427 18.3981 12.0402C18.3981 12.0352 18.3981 12.0302 18.3981 12.0227C18.3981 12.0077 18.3981 11.9953 18.4007 11.9803C18.4007 11.9728 18.4032 11.9653 18.4058 11.9578C18.4058 11.9454 18.4108 11.9329 18.4134 11.9204C18.4134 11.9129 18.4185 11.9054 18.421 11.8955C18.4261 11.883 18.4287 11.873 18.4337 11.863C18.4363 11.8555 18.4414 11.848 18.4439 11.8406C18.449 11.8306 18.4566 11.8206 18.4617 11.8106C18.4668 11.8031 18.4694 11.7956 18.4745 11.7906C18.4821 11.7807 18.4897 11.7707 18.4974 11.7607C18.5024 11.7557 18.5075 11.7482 18.5126 11.7432C18.5228 11.7333 18.5304 11.7258 18.5406 11.7158C18.5457 11.7108 18.5508 11.7058 18.5559 11.7008C18.5686 11.6908 18.5813 11.6809 18.594 11.6734C18.5991 11.6709 18.6017 11.6684 18.6068 11.6659C18.6246 11.6534 18.6424 11.6459 18.6627 11.6359L20.9068 10.6577L20.917 10.6528V7.69073L20.9297 7.68823Z" fill="#E39F00"/>
<path d="M12.0856 11.4313L11.6226 11.2267L9.06042 10.0938L4.12695 12.2448L9.08332 14.6179L11.6226 13.4101L12.0856 13.188L14.0041 12.2772L12.0856 11.4313Z" fill="#FF7F95"/>
<path d="M12.0854 13.1879L11.6223 13.4075L9.08052 14.6153L9.05762 25.3155L11.7928 24.0204V15.3439C11.7928 15.3015 11.7979 15.2616 11.808 15.2241C11.8284 15.0969 11.8666 14.9746 11.9225 14.8548C11.9632 14.755 12.0192 14.6577 12.0828 14.5629C12.3347 14.1985 12.7622 13.8766 13.3474 13.6171C13.5509 13.5273 13.7672 13.4474 13.9987 13.3776V12.2771L12.0854 13.1879Z" fill="#D4093D"/>
<path d="M4.1269 12.2446L4.104 23.0472L9.06037 25.318L9.08327 14.6177L4.1269 12.2446Z" fill="#FF395B"/>
<path d="M27.8683 18.0588L24.0213 19.8805H24.0136C24.0136 19.8805 24.0035 19.888 23.9958 19.8905C23.9831 19.8954 23.9704 19.9004 23.9551 19.9054C23.9475 19.9054 23.9424 19.9104 23.9348 19.9104C23.922 19.9129 23.9068 19.9179 23.894 19.9179C23.889 19.9179 23.8813 19.9179 23.8762 19.9204C23.8559 19.9204 23.8381 19.9254 23.8177 19.9254C23.7974 19.9254 23.7796 19.9254 23.7592 19.9204C23.7541 19.9204 23.7465 19.9204 23.7414 19.9179C23.7287 19.9179 23.7134 19.9129 23.7007 19.9104C23.693 19.9104 23.688 19.9079 23.6829 19.9054C23.6701 19.9004 23.6549 19.8954 23.6422 19.8905C23.6371 19.8905 23.632 19.888 23.6269 19.8855H23.6218L21.4337 18.8823L21.3472 18.8424V19.601L23.8177 20.7838L28.7385 18.4431L27.8658 18.0588H27.8683Z" fill="#6AE4D8"/>
<path d="M21.3472 19.6011V24.7041L23.8177 25.8345V20.7839L21.3472 19.6011Z" fill="#00C9BE"/>
<path d="M23.8174 25.8344L28.7381 23.5062V18.4431L23.8174 20.7838V25.8344Z" fill="#009F97"/>
<path d="M23.7973 9.89648L21.3929 10.9445L20.9299 11.1467L20.9222 11.1492L18.8613 12.0475L20.9299 13.0357L20.935 13.0382L21.398 13.2628L23.8177 14.4206L28.7384 12.0799L23.7973 9.89648Z" fill="#6AE4D8"/>
<path d="M21.398 13.2629L20.9324 13.0408H20.9273L18.8613 12.0476V13.2878C19.2124 13.3776 19.5407 13.4874 19.8384 13.6172C20.3065 13.8243 20.6729 14.0714 20.9299 14.3508C20.935 14.3558 20.9401 14.3608 20.9426 14.3658C21.2174 14.6678 21.365 15.0046 21.365 15.3615C21.365 15.4264 21.3573 15.4912 21.3497 15.5536V18.341L21.4337 18.3784L23.8202 19.4714V14.4207L21.4006 13.2629H21.398Z" fill="#00C9BE"/>
<path d="M23.8174 14.4207V15.8082V16.2698V19.4714L27.3158 17.8145L27.8603 17.5574L28.7381 17.1407V12.0801L23.8174 14.4207Z" fill="#009F97"/>
<path d="M16.5229 13.4749C16.0268 13.4749 15.551 13.5173 15.1108 13.5896C15.551 13.5173 16.0268 13.4773 16.5229 13.4749Z" fill="#47B5D9"/>
<path d="M19.6474 16.6889C19.4108 16.7937 19.1488 16.886 18.8612 16.9634C18.7137 17.0033 18.5585 17.0408 18.3982 17.0732C17.8486 17.1855 17.238 17.2479 16.5942 17.2479C16.5815 17.2479 16.5688 17.2479 16.5561 17.2479C16.5459 17.2479 16.5357 17.2479 16.523 17.2479C15.7724 17.2429 15.0676 17.1531 14.457 16.9983C14.2967 16.9584 14.1415 16.9135 13.9939 16.8636C13.8336 16.8112 13.681 16.7513 13.541 16.6889C12.7574 16.342 12.2892 15.8704 12.2892 15.3614C12.2892 15.2191 12.3274 15.0794 12.3986 14.9421C12.3248 15.0719 12.279 15.2066 12.2663 15.3439H12.2612V26.0291H12.2663C12.3681 27.0697 14.2585 27.8982 16.5739 27.8982C18.8892 27.8982 20.7797 27.0697 20.884 26.0291H20.8891V15.5161C20.8026 15.9652 20.3548 16.377 19.6525 16.6889H19.6474Z" fill="#47B5D9"/>
<path d="M15.1106 13.5896C14.8842 13.627 14.6704 13.6719 14.4644 13.7219C14.6704 13.6719 14.8867 13.627 15.1106 13.5896Z" fill="#0085BB"/>
<path d="M18.3981 13.6471C17.8485 13.5348 17.2379 13.4724 16.5942 13.4724H16.584C17.2328 13.4724 17.8485 13.5398 18.4006 13.6571V13.6471H18.3981Z" fill="#0085BB"/>
<path d="M14.4645 13.7244C14.3042 13.7618 14.149 13.8067 14.0015 13.8566V13.8616C14.149 13.8117 14.3042 13.7668 14.4645 13.7244Z" fill="#0085BB"/>
<path d="M13.999 13.8592V13.8542C13.8362 13.9091 13.6835 13.9665 13.5385 14.0314C12.9762 14.281 12.5742 14.5954 12.3936 14.9422C12.6429 14.503 13.2205 14.1237 13.9965 13.8617L13.999 13.8592Z" fill="#0085BB"/>
<path d="M18.861 13.772V13.757C18.7134 13.7171 18.5582 13.6797 18.3979 13.6472V13.6572C18.5582 13.6921 18.7134 13.7296 18.861 13.772Z" fill="#0085BB"/>
<path d="M19.6473 14.0314C19.4107 13.9266 19.1486 13.8342 18.8611 13.7569V13.7719C18.7135 13.7294 18.5583 13.6895 18.398 13.6571C17.8459 13.5398 17.2302 13.4749 16.5814 13.4724C16.5686 13.4724 16.5559 13.4724 16.5457 13.4724H16.5228C16.0267 13.4774 15.5509 13.5148 15.1107 13.5872C14.8843 13.6246 14.6706 13.6695 14.4645 13.722C14.3042 13.7619 14.149 13.8093 14.0014 13.8592C13.2228 14.1212 12.6478 14.5005 12.3985 14.9397C12.3272 15.0744 12.2891 15.2142 12.2891 15.3589C12.2891 15.8705 12.7598 16.3421 13.5409 16.6865C13.6834 16.7489 13.8335 16.8062 13.9938 16.8611C14.1413 16.9111 14.2965 16.956 14.4568 16.9959C15.0675 17.1506 15.7723 17.2404 16.5228 17.2454C16.533 17.2454 16.5432 17.2454 16.5559 17.2454C16.5686 17.2454 16.5814 17.2454 16.5941 17.2454C17.2378 17.2454 17.851 17.1831 18.398 17.0708C18.5583 17.0383 18.7135 17.0009 18.8611 16.961C19.146 16.8836 19.4107 16.7913 19.6473 16.6865C20.3495 16.377 20.7999 15.9653 20.8838 15.5136C20.894 15.4612 20.8991 15.4088 20.8991 15.3564C20.8991 14.8449 20.4284 14.3732 19.6473 14.0289V14.0314Z" fill="#0085BB"/>
</g>
<defs>
<clipPath id="clip0_17137_72541">
<rect width="134" height="34.359" fill="white"/>
</clipPath>
</defs>
</svg>
